<?xml version="1.0" encoding="UTF-8"?>
<!-- Generator: visioncortex VTracer 0.6.12 -->
<svg version="1.1" xmlns="http://www.w3.org/2000/svg" width="1024" height="1024">
<path d="M0 0 C337.92 0 675.84 0 1024 0 C1024 337.92 1024 675.84 1024 1024 C686.08 1024 348.16 1024 0 1024 C0 686.08 0 348.16 0 0 Z " fill="#F4F3F1" transform="translate(0,0)"/>
<path d="M0 0 C13.875876513694 -0.070128640569 27.751709491946 -0.123125615298 41.627728462219 -0.155436515808 C48.073905045374 -0.17095968272 54.519958626402 -0.191947660765 60.966064453125 -0.226318359375 C67.21015279659 -0.259395919667 73.454124353381 -0.27695273307 79.698293685913 -0.284631729126 C82.056793429563 -0.290089863608 84.415288252097 -0.300741651475 86.773736953735 -0.317190170288 C120.516384063152 -0.542729778884 154.97845689521 2.677875445164 185.08154296875 19.13818359375 C202.058213641678 28.940773109034 216.17585393048 42.215590877572 226.01123046875 59.2060546875 C231.363987013108 68.917673227733 234.581512602241 79.221452799412 237 90 C237.226875 90.9990234375 237.45375 91.998046875 237.6875 93.02734375 C241.788253932403 114.698689184437 239.384088456145 139.04726410282 232.5078125 159.9375 C225.901593859575 178.495700131966 214.531100695179 195.046456789373 199.6796875 207.94921875 C180.412236300617 224.006811642434 158.320052964588 232.152345131101 134 237 C133.048510742187 237.191264648437 132.097021484375 237.382529296875 131.11669921875 237.57958984375 C128.744932364737 238.055444596771 126.372715379982 238.528901651266 124 239 C124.70125 239.556875 125.4025 240.11375 126.125 240.6875 C134.972842500139 247.804242880547 142.486530964418 255.167476770047 149.5859375 264.0234375 C151.2539027669 266.080054867925 152.932694829381 268.100565833812 154.6640625 270.1015625 C160.247799924799 276.5555313426 165.389957383604 283.160706112794 170.28125 290.15234375 C172.799819227266 293.745063957402 175.407392042852 297.266930397409 178.0263671875 300.786865234375 C183.930568239124 308.722350327407 189.634294286974 316.760641584657 195.179443359375 324.95068359375 C198.816817460457 330.3101553741 202.557023778012 335.580436984269 206.375 340.8125 C213.186535042936 350.162476056207 219.680396175944 359.718835121394 226.16552734375 369.296875 C228.489312708847 372.721010156023 230.829407512657 376.133780618869 233.171142578125 379.545654296875 C237.749662479237 386.217639938879 242.307260544476 392.903270417682 246.8125 399.625 C247.239582519531 400.259138183594 247.666665039063 400.893276367188 248.106689453125 401.546630859375 C249.089355896958 403.019083181365 250.047515688985 404.507846248659 251 406 C251 406.33 251 406.66 251 407 C244.329693266461 407.254783705296 237.660651060885 407.429166647568 230.986572265625 407.54931640625 C228.719493832046 407.599426517794 226.452735719379 407.667538154967 224.186767578125 407.75439453125 C209.552113230414 408.301063667508 209.552113230414 408.301063667508 203 407 C199.481794911727 405.070896749804 197.978280184259 403.458059080317 195.779052734375 400.1337890625 C195.191965332031 399.099638671875 194.604877929688 398.06548828125 194 397 C193.211116648927 395.849939878873 192.408320526465 394.709335595673 191.593994140625 393.5771484375 C188.887980519287 389.797773773994 186.317852060762 385.936511589664 183.75 382.0625 C182.819861591799 380.672281698541 181.888863136884 379.282638457007 180.95703125 377.8935546875 C179.12647876109 375.163663600182 177.299184910808 372.431642996006 175.474609375 369.69775390625 C172.351836599464 365.024170819413 169.182912603596 360.382783827303 166 355.75 C164.992142221658 354.279978958822 163.984328868601 352.809927458224 162.9765625 351.33984375 C162.490908203125 350.631987304688 162.00525390625 349.924130859375 161.5048828125 349.19482421875 C159.347414477092 346.048224553709 157.194389187295 342.898593072591 155.041259765625 339.7490234375 C153.399809953182 337.348778876594 151.756652176067 334.949710755241 150.11328125 332.55078125 C148.145626185315 329.677678022666 146.184595166846 326.800287635445 144.23046875 323.91796875 C133.627138002908 308.316532608811 122.435819603629 293.230345927132 110.3974609375 278.7060546875 C109.18144969377 277.221518249487 107.997875377164 275.71052781506 106.8203125 274.1953125 C89.444995839887 251.952202845614 67.60035288093 233.682196053715 41.39111328125 222.9296875 C35.665868478285 220.723410724042 29.860017229213 218.812991286058 24 217 C23.204487304688 216.749921875 22.408974609375 216.49984375 21.58935546875 216.2421875 C7.848209701893 211.947196431601 7.848209701893 211.947196431601 3.046875 212.24609375 C2.04140625 211.8348828125 1.0359375 211.423671875 0 211 C-0.94749602879 206.329685200936 -0.649307140679 201.67090432176 -0.4375 196.9375 C-0.402408243183 195.593178458888 -0.370465441452 194.248770731418 -0.341796875 192.904296875 C-0.258911271766 189.600713546107 -0.143567192094 186.301414353573 0 183 C8.384845219622 184.262052746157 16.546773050824 185.987203959801 24.75 188.125 C25.935534667969 188.424143066406 27.121069335937 188.723286132813 28.342529296875 189.031494140625 C33.877019462561 190.469019250817 39.213626646131 191.979951898682 44.47265625 194.23828125 C58.395218553662 200.094332257681 71.174765920952 200.758543761768 86.125 200.75 C87.091202697754 200.753534851074 88.057405395508 200.757069702148 89.052886962891 200.760711669922 C111.464641250898 200.751437151738 132.435394042322 197.633676181224 152.25 186.6875 C164.751153233482 179.025502856898 174.273271872383 169.466949953431 181.62109375 156.7734375 C184.29737616073 151.390546532243 186.229029304921 145.736405077539 188 140 C188.368671875 138.8076171875 188.73734375 137.615234375 189.1171875 136.38671875 C192.043241921233 124.245341539982 191.406267315483 108.850874087918 188.5 96.75 C184.508568188012 84.551624181609 178.34736081084 73.859535583338 169 65 C168.275546875 64.3051953125 167.55109375 63.610390625 166.8046875 62.89453125 C157.194389241804 54.473303793242 145.045312504008 49.589570483478 132.875 46.125 C132.2085546875 45.933977050781 131.542109375 45.742954101563 130.85546875 45.546142578125 C116.163614984491 41.689530964679 102.267991477454 42.055634538284 87.227693557739 42.856519699097 C79.866967288939 43.212087267398 72.499065539506 43.378704634111 65.132523536682 43.568884849548 C58.660432073434 43.746452223354 52.207672384662 44.00006505712 45.745849609375 44.410400390625 C12.464079467532 46.461689147598 12.464079467532 46.461689147598 1.974281311035 42.31746673584 C0 41 0 41 -1.35391998291 39.095375061035 C-4.609590249384 31.238459023511 -3.696830092413 22.683522334592 -2.733505249023 14.435531616211 C-2.046944468699 9.565069512786 -1.096227107382 4.793860866804 0 0 Z " fill="#050505" transform="translate(356,290)"/>
<path d="M0 0 C15.18 0 30.36 0 46 0 C46 107.91 46 215.82 46 327 C96.16 327 146.32 327 198 327 C198 340.53 198 354.06 198 368 C132.66 368 67.32 368 0 368 C0 246.56 0 125.12 0 0 Z " fill="#040404" transform="translate(635,421)"/>
<path d="M0 0 C3.864790949261 4.658795030421 7.29086833132 9.601180763995 10.75 14.5625 C11.041328125 14.977900390625 11.041328125 14.977900390625 12.515625 17.080078125 C16.412206345274 22.655778405244 20.210024057798 28.291294085614 23.97314453125 33.957763671875 C27.301638854991 38.953712571915 30.682851340403 43.913574076356 34.0625 48.875 C34.429077148438 49.413586425781 34.429077148438 49.413586425781 36.2841796875 52.13916015625 C38.521931216668 55.426689739894 40.760897494171 58.713390398926 43 62 C43.670795898438 62.98484375 44.341591796875 63.9696875 45.03271484375 64.984375 C51.086305269014 73.871270344784 57.142354001753 82.756529333964 63.21435546875 91.630859375 C64.302892508847 93.224777181435 65.387983225475 94.821055287165 66.46923828125 96.419921875 C68.888689304445 99.986071978023 71.342656801935 103.488889894394 73.984375 106.89453125 C74.208752441406 107.191297607422 74.208752441406 107.191297607422 75.34423828125 108.693115234375 C76.534691813466 110.256408101976 77.754516304121 111.797214881269 78.9765625 113.3359375 C79.314296875 114.215078125 79.65203125 115.09421875 80 116 C78.409155030792 118.344201841645 77.256543311205 119.364369121144 75 121 C74.225756835937 121.56203125 73.451513671875 122.1240625 72.65380859375 122.703125 C69.923817067678 124.620757807621 67.157519595943 126.472018714128 64.375 128.3125 C63.42109375 128.95767578125 62.4671875 129.6028515625 61.484375 130.267578125 C60.569140625 130.87666015625 59.65390625 131.4857421875 58.7109375 132.11328125 C57.878686523438 132.667980957031 57.046435546875 133.222680664063 56.18896484375 133.794189453125 C54 135 54 135 51 135 C49.51953125 133.18359375 49.51953125 133.18359375 47.8125 130.4375 C43.722867993274 124.064931087487 39.45716692788 117.835335562031 35.125 111.625 C34.801324462891 111.159285888672 34.801324462891 111.159285888672 33.163330078125 108.802490234375 C29.390271749845 103.384657440696 25.578749253051 97.996291496677 21.73779296875 92.62646484375 C21.508780441284 92.306079940796 21.508780441284 92.306079940796 20.349838256836 90.68473815918 C19.233450937323 89.122997600895 18.11675753178 87.561475851165 17 86 C16.998643471003 86.993746298552 16.997286942005 87.987492597103 16.995889306068 89.011352419853 C16.936000795959 132.787698080717 16.873619225753 176.564039770939 16.798675537109 220.340362548828 C16.798108725408 220.671512814192 16.798108725408 220.671512814192 16.795240314677 222.347333854064 C16.770591367515 236.739402154367 16.74549860938 251.13146964886 16.719948388636 265.523536376655 C16.707422058687 272.58095769978 16.694993845402 279.63837919417 16.6826171875 286.69580078125 C16.681383862924 287.398115328942 16.680150538348 288.100429876633 16.678879840299 288.824026683345 C16.638918951108 311.605891261765 16.605442458786 334.387759786081 16.575313093141 357.169639309868 C16.54345091332 381.235219836773 16.504233045126 405.300778256487 16.457209944725 429.366334080696 C16.429264773088 443.790562735519 16.407257995281 458.214775753092 16.392737492919 472.639024272561 C16.38223266158 482.51696685582 16.364450206866 492.394879241201 16.340832963586 502.272799119353 C16.327405344536 507.980256502397 16.317293432877 513.687671380115 16.315786361694 519.39514541626 C16.314338322544 524.612253677537 16.303827486236 529.82925937501 16.285865589976 535.046336188912 C16.280984491015 536.941373650236 16.279534453411 538.836423434968 16.281721189618 540.731465920806 C16.284192771944 543.292347689709 16.274571451778 545.852896507887 16.261713027954 548.413740158081 C16.265362709761 549.16252848804 16.269012391567 549.911316817999 16.272772669792 550.682795703411 C16.257260717018 552.457460018302 16.138208884176 554.230657648853 16 556 C15.34 556.66 14.68 557.32 14 558 C11.326171875 558.2587890625 11.326171875 558.2587890625 7.96875 558.265625 C6.7660546875 558.268203125 5.563359375 558.27078125 4.32421875 558.2734375 C3.0622265625 558.265703125 1.800234375 558.25796875 0.5 558.25 C-0.7619921875 558.257734375 -2.023984375 558.26546875 -3.32421875 558.2734375 C-4.5269140625 558.270859375 -5.729609375 558.26828125 -6.96875 558.265625 C-8.07669921875 558.263369140625 -9.1846484375 558.26111328125 -10.326171875 558.2587890625 C-11.20853515625 558.173388671875 -12.0908984375 558.08798828125 -13 558 C-13.66 557.34 -14.32 556.68 -15 556 C-15.200290210319 553.43589600807 -15.274217999382 550.979327288161 -15.261713027954 548.413740158081 C-15.265709090233 547.617896837592 -15.269705152512 546.822053517103 -15.273822307587 546.002093732357 C-15.284884251029 543.306825618973 -15.2815830578 540.611759820149 -15.278472900391 537.916473388672 C-15.283470801368 535.976088722115 -15.28934509251 534.035706145817 -15.296025633812 532.095326542854 C-15.311900904846 526.741095002807 -15.3152604303 521.386915819802 -15.316674232483 516.032663583755 C-15.320355214173 510.267121691955 -15.335504073991 504.501608969457 -15.34928894043 498.736083984375 C-15.371606700956 488.739544451137 -15.386592769674 478.743015233718 -15.396656036377 468.74645614624 C-15.411216495024 454.292956926811 -15.436745824282 439.839493628022 -15.464987322688 425.386015430093 C-15.510503324818 401.938505449372 -15.547115297565 378.490990353607 -15.578125 355.04345703125 C-15.608276404667 332.260895724041 -15.642609082501 309.478347005752 -15.6826171875 286.69580078125 C-15.683848191071 285.993857554998 -15.685079194643 285.291914328746 -15.686347501352 284.568700095639 C-15.698714084855 277.519661233442 -15.711165831865 270.470622523795 -15.723679982591 263.421583922114 C-15.749172058189 249.061177650145 -15.774095616565 234.700770409978 -15.798675537109 220.340362548828 C-15.799804555997 219.680876791552 -15.799804555997 219.680876791552 -15.805518075824 216.343479171395 C-15.879649881205 172.895667144248 -15.940690850961 129.447834465302 -16 86 C-17.754265535332 88.387476053761 -19.50791951892 90.775397288932 -21.26123046875 93.16357421875 C-21.753868865967 93.833901824951 -22.246507263184 94.504229431152 -22.75407409668 95.194869995117 C-26.615593294951 100.45612210571 -30.398280340084 105.767353935648 -34.125 111.125 C-34.712651367188 111.962487792969 -35.300302734375 112.799975585937 -35.90576171875 113.662841796875 C-38.575257665042 117.474683021363 -41.214274176944 121.296872147679 -43.75 125.19921875 C-44.157182617188 125.817163085938 -44.564365234375 126.435107421875 -44.98388671875 127.07177734375 C-46.04604583257 128.692058576428 -47.090180845526 130.324115915658 -48.1328125 131.95703125 C-48.748984375 132.6312109375 -49.36515625 133.305390625 -50 134 C-55.43180678915 133.518310053338 -60.20911008289 129.222405742708 -64.610595703125 126.308349609375 C-66.314472917332 125.186200665117 -68.032517309864 124.088347015607 -69.751953125 122.990234375 C-70.81994140625 122.28576171875 -71.8879296875 121.5812890625 -72.98828125 120.85546875 C-73.973527832031 120.212468261719 -74.958774414063 119.569467773438 -75.973876953125 118.906982421875 C-76.308187255859 118.592330322266 -76.308187255859 118.592330322266 -78 117 C-77.953724185412 114.558357500826 -77.158618496595 113.273766772237 -75.947021484375 111.1826171875 C-75.509465332031 110.560322265625 -75.071909179688 109.93802734375 -74.62109375 109.296875 C-74.119890136719 108.57564453125 -73.618686523438 107.8544140625 -73.102294921875 107.111328125 C-72.552912597656 106.33208984375 -72.003530273437 105.5528515625 -71.4375 104.75 C-70.253700544787 103.047922680801 -69.0714848962 101.344743028847 -67.890625 99.640625 C-67.26091796875 98.73248046875 -66.6312109375 97.8243359375 -65.982421875 96.888671875 C-61.820999638517 90.824885187553 -57.782978270255 84.677395622389 -53.734130859375 78.5380859375 C-50.584850401776 73.786186855115 -47.377875965817 69.103462623246 -44.00390625 64.5078125 C-39.899471821377 58.915614043515 -36.063884499689 53.167786834434 -32.25 47.375 C-26.964015785648 39.391732524076 -21.591573265546 31.490060229129 -16.0341796875 23.693603515625 C-11.89293589522 17.878499403285 -7.923067091635 11.9648451916 -4 6 C-2.669103157067 3.998364067938 -1.334691302247 1.999109998761 0 0 Z " fill="#060606" transform="translate(298,139)"/>
<path d="M0 0 C0.33 0 0.66 0 1 0 C1 121.44 1 242.88 1 368 C66.01 368 131.02 368 198 368 C198 368.66 198 369.32 198 370 C195.448002955028 370.214904008644 193.001284587124 370.284859794356 190.445190429688 370.278472900391 C189.632563509941 370.28426530242 188.819936590195 370.290057704449 187.982684612274 370.296025633812 C185.232558003852 370.313165721638 182.482597759118 370.315914040749 179.732421875 370.31884765625 C177.771851416692 370.328136203032 175.811284949742 370.33830323651 173.850723266602 370.34928894043 C168.505860908175 370.376724194688 163.161025085984 370.391778146534 157.816110610962 370.404716968536 C152.238663312768 370.420288702589 146.661270719171 370.447097680541 141.083862304688 370.472747802734 C130.512216535861 370.519641618558 119.940560595069 370.556334212282 109.368863582611 370.589420676231 C97.337619849222 370.627567419893 85.306430907519 370.676996909194 73.275233268738 370.72740483284 C48.516862727575 370.830882275903 23.758457026121 370.920090974229 -1 371 C-0.895467323878 323.736778117817 -0.785707496008 276.473570907443 -0.668883059174 229.210377722979 C-0.655112574108 223.637484981553 -0.641385613823 218.064592133711 -0.627685546875 212.49169921875 C-0.624957242534 211.382181138396 -0.622228938192 210.272663058043 -0.619417957962 209.129523217678 C-0.575276855208 191.136419171921 -0.534666066794 173.143308787598 -0.495347388089 155.150193631649 C-0.454960226809 136.703861467464 -0.410808423366 118.257541120688 -0.363121449947 99.81122636795 C-0.333787878057 88.418019527122 -0.30743250958 77.024813636862 -0.284821026027 65.631591439247 C-0.269059825307 57.831386599095 -0.249660157091 50.031196244514 -0.227331586182 42.231007456779 C-0.214536000977 37.722764944821 -0.203409334158 33.214533681877 -0.196580886841 28.70627784729 C-0.190306757928 24.587216566154 -0.179512683723 20.468193962943 -0.164966695011 16.3491538167 C-0.160502802707 14.851186760681 -0.157765525603 13.353213466956 -0.156838007271 11.855240046978 C-0.155346416596 9.834832999123 -0.14722371418 7.814433965915 -0.13866519928 5.794044494629 C-0.136007156968 4.667034554482 -0.133349114656 3.540024614334 -0.130610525608 2.378862857819 C-0.087509052157 1.593838114738 -0.044407578707 0.808813371658 0 0 Z " fill="#E4E4E3" transform="translate(634,421)"/>
<path d="M0 0 C0.99 0 1.98 0 3 0 C4.1875 2 4.1875 2 5 4 C3.68 3.67 2.36 3.34 1 3 C1 156.45 1 309.9 1 468 C0.67 468 0.34 468 0 468 C0 313.56 0 159.12 0 0 Z " fill="#ECEBEA" transform="translate(315,227)"/>
<path d="M0 0 C0.33 0 0.66 0 1 0 C1 155.43 1 310.86 1 471 C0.67 471 0.34 471 0 471 C-0.106433546606 468.574072209793 -0.141997290477 466.176079503591 -0.13866519928 463.749095916748 C-0.141507417262 462.965200539231 -0.144349635243 462.181305161715 -0.147277981043 461.373655378819 C-0.155700227222 458.706999447986 -0.156899028255 456.040386526342 -0.158218383789 453.373718261719 C-0.16277865506 451.458535797467 -0.167777871669 449.543354335703 -0.173181951046 447.628174066544 C-0.186833952221 442.334166896469 -0.194201735542 437.04016618656 -0.200608611107 431.746145963669 C-0.208581955272 426.048666971508 -0.222290374173 420.351201563654 -0.235321044922 414.653732299805 C-0.257128950449 404.771211477622 -0.275257818529 394.888689310305 -0.290925979614 385.006156921387 C-0.31359144706 370.713114745566 -0.341739540707 356.42008755764 -0.371245257556 342.127058058977 C-0.418971373893 318.934809555683 -0.462228535446 295.742555179287 -0.502685546875 272.55029296875 C-0.541991353603 250.023920881576 -0.583407221642 227.497554292144 -0.627685546875 204.97119140625 C-0.629048076617 204.277587660514 -0.630410606358 203.583983914778 -0.63181442488 202.869361873716 C-0.645500204103 195.903694906969 -0.659228205996 188.938028023951 -0.672985765385 181.972361198626 C-0.760429779588 137.694797119579 -0.844644974514 93.417227676576 -0.924072265625 49.1396484375 C-0.926066716909 48.029892847538 -0.928061168194 46.920137257576 -0.930116057396 45.776752710342 C-0.941378399806 39.50954278193 -0.952592506097 33.242332771079 -0.96371947974 26.975122600794 C-0.967044721897 25.102923823239 -0.970379321975 23.230725062278 -0.973723955452 21.358526319265 C-0.978244728729 18.823773824995 -0.982718342541 16.289021252291 -0.987175941467 13.75426864624 C-0.988494439423 13.018756070733 -0.989812937379 12.283243495226 -0.991171389818 11.525442659855 C-1.007743672211 2.015487344423 -1.007743672211 2.015487344423 0 0 Z " fill="#FEFEFE" transform="translate(282,223)"/>
<path d="M0 0 C0.987205352783 0.005594329834 1.974410705566 0.011188659668 2.99153137207 0.016952514648 C4.078377227783 0.028327484131 5.165223083496 0.039702453613 6.285003662109 0.051422119141 C7.426463470459 0.059423370361 8.567923278809 0.067424621582 9.74397277832 0.075668334961 C13.53163522077 0.103638032251 17.319185823979 0.139076899255 21.106781005859 0.174957275391 C23.727088991523 0.19671190357 26.347399521596 0.218162038616 28.967712402344 0.239318847656 C34.46397500343 0.284522237333 39.960187096677 0.334007866216 45.456390380859 0.385894775391 C51.821816130833 0.445923810151 58.187271654801 0.498677554174 64.552791237831 0.547663092613 C70.665337630369 0.594910333658 76.777821778318 0.647755573068 82.890300750732 0.703022003174 C85.497163120868 0.726015975858 88.104039113209 0.747513349958 90.710926055908 0.767528533936 C94.343755363344 0.796136688762 97.976467427921 0.831097503138 101.609222412109 0.867828369141 C102.700116729736 0.875154876709 103.791011047363 0.882481384277 104.914962768555 0.890029907227 C105.405745620728 0.895646896362 105.405745620728 0.895646896362 107.889404296875 0.924072265625 C108.319504594803 0.927947950363 108.319504594803 0.927947950363 110.496072769165 0.947561264038 C110.79664431572 0.970901918411 110.79664431572 0.970901918411 112.317718505859 1.089019775391 C112.317718505859 1.419019775391 112.317718505859 1.749019775391 112.317718505859 2.089019775391 C74.037718505859 2.089019775391 35.757718505859 2.089019775391 -3.682281494141 2.089019775391 C-3.682281494141 15.619019775391 -3.682281494141 29.149019775391 -3.682281494141 43.089019775391 C30.307718505859 43.089019775391 64.297718505859 43.089019775391 99.317718505859 43.089019775391 C99.317718505859 43.749019775391 99.317718505859 44.409019775391 99.317718505859 45.089019775391 C85.922761046419 45.15841201415 72.52784607447 45.211776144194 59.132745742798 45.244456291199 C52.91341445028 45.260138049411 46.694205776054 45.281422116626 40.474945068359 45.315338134766 C34.477357620724 45.347842032076 28.479888397091 45.365853857635 22.482219696045 45.373651504517 C20.189580408761 45.379211167826 17.896947869496 45.390067207238 15.604358673096 45.406209945679 C12.402710659393 45.427864857236 9.201556407996 45.430991698523 5.999847412109 45.429595947266 C5.043911895752 45.440381774902 4.087976379395 45.451167602539 3.103073120117 45.462280273438 C2.233665924072 45.458156280518 1.364258728027 45.454032287598 0.468505859375 45.449783325195 C0.089648942947 45.451166014671 0.089648942947 45.451166014671 -1.827596664429 45.458163261414 C-2.439642658234 45.336345911026 -3.051688652039 45.214528560638 -3.682281494141 45.089019775391 C-5.682281494141 42.089019775391 -5.682281494141 42.089019775391 -5.974212646484 40.178466796875 C-5.993568725586 39.459784240723 -6.012924804687 38.74110168457 -6.032867431641 38.000640869141 C-6.059192504883 37.18324432373 -6.085517578125 36.36584777832 -6.112640380859 35.523681640625 C-6.130465698242 34.645477600098 -6.148291015625 33.76727355957 -6.166656494141 32.862457275391 C-6.190765991211 31.959035949707 -6.214875488281 31.055614624023 -6.239715576172 30.124816894531 C-6.287989564513 28.216840066705 -6.331386119853 26.308734506971 -6.370269775391 24.400543212891 C-6.432197232233 21.468009941627 -6.515202250434 18.536588327231 -6.600250244141 15.604644775391 C-6.644487339837 13.753112144231 -6.687498404633 11.901549727433 -6.729156494141 10.049957275391 C-6.755078735352 9.167704772949 -6.781000976562 8.285452270508 -6.807708740234 7.37646484375 C-6.843153181105 5.280532521205 -6.77360250974 3.183261662372 -6.682281494141 1.089019775391 C-4.245084735869 -0.129578603745 -2.723323392452 -0.022133524208 0 0 Z " fill="#FDFDFC" transform="translate(359.6822814941406,287.9109802246094)"/>
<path d="M0 0 C36.3 0 72.6 0 110 0 C110 0.33 110 0.66 110 1 C107.691442957378 1.214472396218 105.377378575727 1.370496303456 103.0625 1.5 C100.706140271326 1.632088233039 98.350767404795 1.790784606743 96 2 C95.67 2.33 95.34 2.66 95 3 C93.403890184766 3.093337054173 91.803665719163 3.117453724126 90.204833984375 3.113525390625 C89.183851165772 3.113449859619 88.162868347168 3.113374328613 87.110946655273 3.113296508789 C86.000545196533 3.108135223389 84.890143737793 3.102973937988 83.74609375 3.09765625 C82.615510406494 3.09624130249 81.484927062988 3.09482635498 80.320083618164 3.093368530273 C76.692529346958 3.087750189843 73.065035761016 3.075194578761 69.4375 3.0625 C66.98502693008 3.057487363014 64.532552897271 3.052924047861 62.080078125 3.048828125 C56.053364548226 3.037774802469 50.026686607682 3.021018836303 44 3 C44 2.67 44 2.34 44 2 C42.65767436583 1.878264680502 41.308598824096 1.832146682864 39.9609375 1.810546875 C39.080024414063 1.793829345703 38.199111328125 1.777111816406 37.29150390625 1.759887695312 C36.329057617188 1.746312255859 35.366611328125 1.732736816406 34.375 1.71875 C33.886687011719 1.709545288086 33.886687011719 1.709545288086 31.41552734375 1.662963867188 C28.277082335803 1.603920585563 25.138581814678 1.55122456592 22 1.5 C17.874875553689 1.432674143417 13.749939530098 1.359005212228 9.625 1.28125 C8.662553710938 1.267674560547 7.700107421875 1.254099121094 6.70849609375 1.240112304688 C5.827583007813 1.223394775391 4.946669921875 1.206677246094 4.0390625 1.189453125 C3.648234863281 1.183189086914 3.648234863281 1.183189086914 1.67041015625 1.151489257812 C1.119174804687 1.101497802734 0.567939453125 1.051506347656 0 1 C0 0.67 0 0.34 0 0 Z " fill="#1C1C1C" transform="translate(356,290)"/>
<path d="M0 0 C7.92 0 15.84 0 24 0 C24 0.33 24 0.66 24 1 C25.986195394263 1.121932648245 27.976979382555 1.167864663805 29.966796875 1.189453125 C31.268145751953 1.206170654297 32.569494628906 1.222888183594 33.910278320312 1.240112304688 C34.612339019775 1.246794281006 35.314399719238 1.253476257324 36.037734985352 1.260360717773 C38.222137321635 1.281282443022 40.40638552288 1.308312128766 42.590698242188 1.337036132812 C47.227073830101 1.396895497674 51.863519800954 1.448981392991 56.5 1.5 C61.869461193782 1.559084136831 67.238846445164 1.621271956307 72.608169555664 1.691879272461 C74.768662560774 1.718594352909 76.929162582802 1.739324224475 79.089721679688 1.759887695312 C80.391070556641 1.776605224609 81.692419433594 1.793322753906 83.033203125 1.810546875 C84.187921142578 1.823074951172 85.342639160156 1.835603027344 86.532348632812 1.848510742188 C87.346673583984 1.898502197266 88.160998535156 1.948493652344 89 2 C89 2.33 89 2.66 89 3 C59.63 3 30.26 3 0 3 C0 2.01 0 1.02 0 0 Z " fill="#252525" transform="translate(359,328)"/>
<path d="M0 0 C3.479097628348 -0.057755419702 6.958073265934 -0.093511975257 10.4375 -0.125 C11.43072265625 -0.1417578125 12.4239453125 -0.158515625 13.447265625 -0.17578125 C14.39150390625 -0.1822265625 15.3357421875 -0.188671875 16.30859375 -0.1953125 C17.183142089844 -0.205786132812 18.057690429688 -0.216259765625 18.958740234375 -0.22705078125 C19.295548095703 -0.189587402344 19.295548095703 -0.189587402344 21 0 C21.33 0.66 21.66 1.32 22 2 C24.779459261828 2.590745857987 27.506736986273 3.080403559163 30.3125 3.5 C39.65215817331 4.917696236482 39.65215817331 4.917696236482 43 7 C42.34 7.33 41.68 7.66 41 8 C38.517543938885 7.622497557616 36.084641402148 7.181477289365 33.625 6.6875 C25.978432617752 5.21723016511 18.369683486636 4.354776489878 10.60205078125 3.822998046875 C9.798803710937 3.757658691406 8.995556640625 3.692319335937 8.16796875 3.625 C7.459226074219 3.576015625 6.750483398437 3.52703125 6.020263671875 3.4765625 C3.480141677625 2.877369976402 1.979827003311 1.662776812325 0 0 Z " fill="#E7E7E6" transform="translate(462,288)"/>
<path d="M0 0 C2.019275109385 0.605782532815 4.022533967328 1.269197335752 6 2 C3.205425320171 4.963156911095 0.385220473605 7.269024227008 -3.0625 9.4375 C-3.49111328125 9.71529296875 -3.49111328125 9.71529296875 -5.66015625 11.12109375 C-6.4323046875 11.4111328125 -7.204453125 11.701171875 -8 12 C-9.80859375 10.78515625 -9.80859375 10.78515625 -11 9 C-11 8.34 -11 7.68 -11 7 C-8.118466318663 5.598172803674 -6.229121952717 5 -3 5 C-2.4375 3.0625 -2.4375 3.0625 -2 1 C-1.34 0.67 -0.68 0.34 0 0 Z " fill="#090909" transform="translate(362,260)"/>
<path d="M0 0 C3.3 0.33 6.6 0.66 10 1 C7 4 7 4 4.5 4.6875 C-0.338456487694 5.119505043544 -5.145964163231 5.077733669984 -10 5 C-10 4.34 -10 3.68 -10 3 C-11.32 2.67 -12.64 2.34 -14 2 C-9.38 2 -4.76 2 0 2 C0 1.34 0 0.68 0 0 Z " fill="#EAEAEA" transform="translate(464,486)"/>
<path d="M0 0 C0.4021875 0.0825 0.4021875 0.0825 2.4375 0.5 C2.8603125 0.5825 2.8603125 0.5825 5 1 C5.66 0.67 6.32 0.34 7 0 C7.388635649351 2.122548546454 7.760532092213 4.248168284938 8.125 6.375 C8.333828125 7.558359375 8.54265625 8.74171875 8.7578125 9.9609375 C8.837734375 10.963828125 8.91765625 11.96671875 9 13 C8.34 13.66 7.68 14.32 7 15 C7.103125 14.030625 7.20625 13.06125 7.3125 12.0625 C7.209375 11.051875 7.10625 10.04125 7 9 C6.236875 8.855625 5.47375 8.71125 4.6875 8.5625 C3.800625 8.376875 2.91375 8.19125 2 8 C0.125 4.5 0.125 4.5 -1 1 C-0.67 0.67 -0.34 0.34 0 0 Z " fill="#0D0D0D" transform="translate(585,375)"/>
<path d="M0 0 C0.33 0.99 0.66 1.98 1 3 C-0.98 3 -2.96 3 -5 3 C-5 4.65 -5 6.3 -5 8 C-5.99 8 -6.98 8 -8 8 C-10.222976523722 6.534241756865 -12.021271753504 4.802841291252 -14 3 C-14 2.67 -14 2.34 -14 2 C-12.24105155451 1.590872772441 -10.466339834045 1.248970009852 -8.6875 0.9375 C-7.7013671875 0.7608984375 -6.715234375 0.584296875 -5.69921875 0.40234375 C-3 0 -3 0 0 0 Z " fill="#EBECEA" transform="translate(493,526)"/>
<path d="M0 0 C0.33 0.66 0.66 1.32 1 2 C0.67 3.134375 0.34 4.26875 0 5.4375 C-0.33 6.613125 -0.66 7.78875 -1 9 C-0.67 9.99 -0.34 10.98 0 12 C-0.33 12.66 -0.66 13.32 -1 14 C-3.9375 14.75 -3.9375 14.75 -7 15 C-7.66 14.34 -8.32 13.68 -9 13 C-7.734375 10.72265625 -7.734375 10.72265625 -5.75 8.0625 C-5.427734375 7.62486328125 -5.427734375 7.62486328125 -3.796875 5.41015625 C-3.20390625 4.6148046875 -2.6109375 3.819453125 -2 3 C-1.34 2.01 -0.68 1.02 0 0 Z " fill="#0A0B0B" transform="translate(240,224)"/>
<path d="M0 0 C0.144375 0.33 0.144375 0.33 0.875 2 C1.060625 2.33 1.060625 2.33 2 4 C2.66 4 3.32 4 4 4 C4 4.99 4 5.98 4 7 C4.66 7.33 5.32 7.66 6 8 C5.67 8.66 5.34 9.32 5 10 C5.969375 10.12375 6.93875 10.2475 7.9375 10.375 C8.948125 10.58125 9.95875 10.7875 11 11 C11.33 11.66 11.66 12.32 12 13 C11.67 13.165 11.67 13.165 10 14 C9.67 14.495 9.67 14.495 8 17 C6.277602359916 14.550500241957 4.572124772986 12.091908158081 2.875 9.625 C2.62814453125 9.2756640625 2.62814453125 9.2756640625 1.37890625 7.5078125 C0.9212890625 6.8375 0.463671875 6.1671875 -0.0078125 5.4765625 C-0.437231445312 4.858618164062 -0.866650390625 4.240673828125 -1.30908203125 3.60400390625 C-1.537084960937 3.074682617187 -1.765087890625 2.545361328125 -2 2 C-1.34 1.34 -0.68 0.68 0 0 Z " fill="#0C0B0B" transform="translate(507,619)"/>
<path d="M0 0 C1.999403767294 -0.04883211372 4.000507324903 -0.045044891304 6 0 C6.639375 0.37125 7.27875 0.7425 7.9375 1.125 C8.288125 1.74375 8.63875 2.3625 9 3 C8.71887936212 5.008004556287 8.389320334902 7.010140510503 8 9 C8.66 9.33 9.32 9.66 10 10 C9.01 10.33 8.02 10.66 7 11 C5.17578125 8.69140625 5.17578125 8.69140625 3.3125 5.5625 C3.00119140625 5.04751953125 3.00119140625 5.04751953125 1.42578125 2.44140625 C1.19052734375 2.03857421875 1.19052734375 2.03857421875 0 0 Z " fill="#090909" transform="translate(541,673)"/>
<path d="M0 0 C3 1.125 3 1.125 6 3 C6 4.98 6 6.96 6 9 C2.37 7.35 -1.26 5.7 -5 4 C-4.34 3.67 -3.68 3.34 -3 3 C-2.67 2.34 -2.34 1.68 -2 1 C-1.67 1.33 -1.34 1.66 -1 2 C-0.67 1.34 -0.34 0.68 0 0 Z " fill="#060606" transform="translate(409,512)"/>
<path d="M0 0 C1.8125 0.625 1.8125 0.625 4 2 C6.091235005245 5.286226436813 6.970591717306 7.470650911499 7.1875 11.375 C7.125625 12.24125 7.06375 13.1075 7 14 C7.66 14 8.32 14 9 14 C9.41434250847 16.32031804743 9.748899019524 18.656390848891 10 21 C9.01 20.34 8.02 19.68 7 19 C5.9375 16.42578125 5.9375 16.42578125 5 13.3125 C3.564466126117 8.724312887705 1.987966711715 4.373526765773 0 0 Z " fill="#0A0A0A" transform="translate(538,371)"/>
<path d="M0 0 C0.66 0.99 1.32 1.98 2 3 C-0.140625 5.04296875 -0.140625 5.04296875 -3.25 7.1875 C-4.26578125 7.9029296875 -5.2815625 8.618359375 -6.328125 9.35546875 C-7.20984375 9.8981640625 -8.0915625 10.440859375 -9 11 C-9.66 11 -10.32 11 -11 11 C-10.6875 9.0625 -10.6875 9.0625 -10 7 C-9.01 6.67 -8.02 6.34 -7 6 C-6.67 5.01 -6.34 4.02 -6 3 C-3.5 1.875 -3.5 1.875 -1 1 C-0.67 0.67 -0.34 0.34 0 0 Z " fill="#0B0B0B" transform="translate(551,497)"/>
<path d="M0 0 C1.351566747618 1.651914913756 2.679761997468 3.322940915702 4 5 C4.466640625 5.5891015625 4.93328125 6.178203125 5.4140625 6.78515625 C5.875546875 7.3923046875 6.33703125 7.999453125 6.8125 8.625 C7.2520703125 9.194765625 7.691640625 9.76453125 8.14453125 10.3515625 C8.4268359375 10.895546875 8.709140625 11.43953125 9 12 C8.67 12.99 8.34 13.98 8 15 C6 13.6875 6 13.6875 4 12 C4 11.01 4 10.02 4 9 C3.34 8.67 2.68 8.34 2 8 C1.67 7.01 1.34 6.02 1 5 C0.01 4.34 -0.98 3.68 -2 3 C-1.34 2.01 -0.68 1.02 0 0 Z " fill="#060606" transform="translate(298,139)"/>
<path d="M0 0 C2.806566856615 -0.067628117027 5.216249264542 0.461209535073 8 1 C8 1.66 8 2.32 8 3 C10.5 3.625 10.5 3.625 13 4 C12.67 4.495 12.67 4.495 11 7 C7.9609375 6.19921875 7.9609375 6.19921875 4.375 4.6875 C3.186484375 4.1963671875 1.99796875 3.705234375 0.7734375 3.19921875 C-0.141796875 2.8034765625 -1.05703125 2.407734375 -2 2 C-1.34 1.34 -0.68 0.68 0 0 Z " fill="#080808" transform="translate(389,507)"/>
<path d="M0 0 C2 1 2 1 2 1 Z M-2 1 C-1.34 1.33 -0.68 1.66 0 2 C0 2.66 0 3.32 0 4 C-0.99 4 -1.98 4 -3 4 C-3.75 5.8125 -3.75 5.8125 -4 8 C-3.67 8.99 -3.34 9.98 -3 11 C-5.354248003106 10.411437999223 -7.689709152037 9.742593486845 -10 9 C-10 8.34 -10 7.68 -10 7 C-8.3203125 5.45703125 -8.3203125 5.45703125 -6.125 3.8125 C-5.7653515625 3.53728515625 -5.7653515625 3.53728515625 -3.9453125 2.14453125 C-3.303359375 1.7668359375 -2.66140625 1.389140625 -2 1 Z " fill="#0A0A0A" transform="translate(522,467)"/>
<path d="M0 0 C2.148404742849 3.222607114274 2.607230870454 5.283935759882 3.25 9.0625 C3.44078125 10.1259765625 3.6315625 11.189453125 3.828125 12.28515625 C3.88484375 13.1810546875 3.9415625 14.076953125 4 15 C3.34 15.66 2.68 16.32 2 17 C1.87625 16.278125 1.7525 15.55625 1.625 14.8125 C1 12 1 12 -0.125 9.625 C-1.282111901318 6.153664296046 -0.694948206528 3.544235853291 0 0 Z " fill="#EBEBEA" transform="translate(543,383)"/>
<path d="M0 0 C0.433125 0.639375 0.86625 1.27875 1.3125 1.9375 C1.5909375 2.2778125 1.5909375 2.2778125 3 4 C3.99 4.33 4.98 4.66 6 5 C5.67 6.32 5.34 7.64 5 9 C1.37 7.35 -2.26 5.7 -6 4 C-5.34 3.34 -4.68 2.68 -4 2 C-3.01 2 -2.02 2 -1 2 C-0.67 1.34 -0.34 0.68 0 0 Z " fill="#0E0E0E" transform="translate(506,336)"/>
<path d="M0 0 C0.66 0 1.32 0 2 0 C4.015625 2.51953125 4.015625 2.51953125 6.25 5.8125 C6.99765625 6.8914453125 7.7453125 7.970390625 8.515625 9.08203125 C8.760546875 9.56349609375 8.760546875 9.56349609375 10 12 C9.67 12.495 9.67 12.495 8 15 C7.34 14.34 6.68 13.68 6 13 C5.855625 12.34 5.71125 11.68 5.5625 11 C5.376875 10.34 5.19125 9.68 5 9 C4.01 8.34 3.02 7.68 2 7 C2 5.68 2 4.36 2 3 C1.34 3 0.68 3 0 3 C0 2.01 0 1.02 0 0 Z " fill="#0D0D0D" transform="translate(323,177)"/>
<path d="M0 0 C0.33 0.99 0.66 1.98 1 3 C1.66 3 2.32 3 3 3 C2.1875 5.5 2.1875 5.5 1 8 C0.01 8 -0.98 8 -2 8 C-2.33 7.01 -2.66 6.02 -3 5 C-3.33 5.165 -3.33 5.165 -5 6 C-4.75 3.5625 -4.75 3.5625 -4 1 C-2 0 -2 0 0 0 Z " fill="#060707" transform="translate(565,480)"/>
<path d="M0 0 C1.14453125 1.640625 1.14453125 1.640625 2 4 C1.13671875 6.796875 1.13671875 6.796875 -0.3125 9.75 C-0.7830078125 10.73484375 -1.253515625 11.7196875 -1.73828125 12.734375 C-2.1546484375 13.48203125 -2.571015625 14.2296875 -3 15 C-3.33 15 -3.66 15 -4 15 C-4.482029598309 8.131078224101 -4.482029598309 8.131078224101 -3.109375 4.91015625 C-2.136427386014 3.234904900567 -1.074615372098 1.611923058148 0 0 Z " fill="#0F100F" transform="translate(583,454)"/>
<path d="M0 0 C0.66 0 1.32 0 2 0 C2.45375 0.969375 2.9075 1.93875 3.375 2.9375 C3.91125 3.948125 4.4475 4.95875 5 6 C7.1875 6.75 7.1875 6.75 9 7 C9 7.66 9 8.32 9 9 C9.66 9 10.32 9 11 9 C10.67 9.66 10.34 10.32 10 11 C9.01 10.67 8.02 10.34 7 10 C6.67 10.66 6.34 11.32 6 12 C4.991575473108 10.56839732343 3.99352108926 9.129485469828 3 7.6875 C2.7215625 7.28724609375 2.7215625 7.28724609375 1.3125 5.26171875 C0.879375 4.5153515625 0.44625 3.768984375 0 3 C0 2.01 0 1.02 0 0 Z " fill="#ECECEC" transform="translate(331,185)"/>
<path d="M0 0 C0.66 0 1.32 0 2 0 C1.73046875 1.88671875 1.73046875 1.88671875 1 4 C-1.454303499852 5.622534771978 -4.136401217334 6.379292795743 -7 7 C-10.5 6.75 -10.5 6.75 -13 6 C-13 5.67 -13 5.34 -13 5 C-10.69 5 -8.38 5 -6 5 C-6 4.34 -6 3.68 -6 3 C-4 2.666666666667 -2 2.333333333333 0 2 C0 1.34 0 0.68 0 0 Z " fill="#0E0D0E" transform="translate(519,515)"/>
<path d="M0 0 C2.64 0.66 5.28 1.32 8 2 C7.67 2.66 7.34 3.32 7 4 C4.25 5.25 4.25 5.25 1 6 C-1.875 5.25 -1.875 5.25 -4 4 C-4 3.34 -4 2.68 -4 2 C-2.68 2 -1.36 2 0 2 C0 1.34 0 0.68 0 0 Z " fill="#0C0C0C" transform="translate(387,480)"/>
<path d="M0 0 C1.98 0 3.96 0 6 0 C6 0.66 6 1.32 6 2 C6.66 2 7.32 2 8 2 C8 3.98 8 5.96 8 8 C7.01 8 6.02 8 5 8 C3.61328125 6.25 3.61328125 6.25 2.3125 4 C1.8755078125 3.2575 1.438515625 2.515 0.98828125 1.75 C0.6621484375 1.1725 0.336015625 0.595 0 0 Z " fill="#070707" transform="translate(526,651)"/>
<path d="M0 0 C2.875 0.25 2.875 0.25 6 1 C7.4375 2.8125 7.4375 2.8125 8 5 C7.707839527272 6.342956122539 7.379396509051 7.679035512283 7 9 C5.824600040995 8.073472991499 4.659894231077 7.133366128914 3.5 6.1875 C3.17515625 5.92646484375 3.17515625 5.92646484375 1.53125 4.60546875 C1.0259375 4.0756640625 0.520625 3.545859375 0 3 C0 2.01 0 1.02 0 0 Z " fill="#0D0B0C" transform="translate(429,528)"/>
<path d="M0 0 C4.244044118244 3.880268908109 7.109175467894 8.042543461964 10 13 C9.01 13.33 8.02 13.66 7 14 C5.93224775538 12.035335869898 4.934465348185 10.031446409099 4 8 C3.34 7.67 2.68 7.34 2 7 C0.875 5.125 0.875 5.125 0 3 C0 2.01 0 1.02 0 0 Z " fill="#090909" transform="translate(517,569)"/>
<path d="M0 0 C0.66 0 1.32 0 2 0 C2.080786410768 2.124383394266 2.139091408145 4.249632300463 2.1875 6.375 C2.2223046875 7.558359375 2.257109375 8.74171875 2.29296875 9.9609375 C2.1962890625 10.963828125 2.099609375 11.96671875 2 13 C1.01 13.66 0.02 14.32 -1 15 C-1.026854117781 12.687562079939 -1.046328410499 10.375037298612 -1.0625 8.0625 C-1.0741015625 6.7747265625 -1.085703125 5.486953125 -1.09765625 4.16015625 C-1.0654296875 3.1173046875 -1.033203125 2.074453125 -1 1 C-0.67 0.67 -0.34 0.34 0 0 Z " fill="#2F2F2F" transform="translate(548,399)"/>
<path d="M0 0 C0.99 0 1.98 0 3 0 C3.6875 2 3.6875 2 4 4 C5.32 3.67 6.64 3.34 8 3 C8 4.65 8 6.3 8 8 C5.125 7.1875 5.125 7.1875 2 6 C1.34 5.01 0.68 4.02 0 3 C0 2.01 0 1.02 0 0 Z " fill="#EDEDEB" transform="translate(320,169)"/>
<path d="M0 0 C0.77923828125 0.0090234375 1.5584765625 0.018046875 2.361328125 0.02734375 C4.261854466313 0.050663091611 6.162220080094 0.086524141104 8.0625 0.125 C8.0625 0.455 8.0625 0.785 8.0625 1.125 C5.753942957378 1.339472396218 3.439878575727 1.495496303456 1.125 1.625 C-1.231359728674 1.757088233039 -3.586732595205 1.915784606743 -5.9375 2.125 C-6.2675 2.455 -6.5975 2.785 -6.9375 3.125 C-8.4567803781 3.196799639797 -9.979174817401 3.208920072994 -11.5 3.1875 C-12.3262890625 3.1784765625 -13.152578125 3.169453125 -14.00390625 3.16015625 C-14.6419921875 3.1485546875 -15.280078125 3.136953125 -15.9375 3.125 C-15.9375 2.795 -15.9375 2.465 -15.9375 2.125 C-10.513680534 0.180204175538 -5.723735903478 -0.127521108389 0 0 Z " fill="#1E1E1E" transform="translate(457.9375,289.875)"/>
<path d="M0 0 C3.5 0.625 3.5 0.625 7 2 C7.3125 5.0625 7.3125 5.0625 7 8 C7.66 8.33 8.32 8.66 9 9 C7.171875 8.75390625 7.171875 8.75390625 5 8 C3.515625 6.15234375 3.515625 6.15234375 2.25 3.9375 C1.82203125 3.2040234375 1.3940625 2.470546875 0.953125 1.71484375 C0.63859375 1.1489453125 0.3240625 0.583046875 0 0 Z " fill="#0C0C0C" transform="translate(327,241)"/>
<path d="M0 0 C1.8125 0.125 1.8125 0.125 4 1 C6.3125 2.9375 6.3125 2.9375 8 5 C7.67 5.66 7.34 6.32 7 7 C6.79375 6.7215625 6.79375 6.7215625 5.75 5.3125 C5.1725 4.879375 4.595 4.44625 4 4 C1.8125 5.3125 1.8125 5.3125 0 7 C-0.391717529542 5.346081541932 -0.720575451905 3.67654728857 -1 2 C-0.67 1.34 -0.34 0.68 0 0 Z " fill="#F9F8F8" transform="translate(521,353)"/>
<path d="M0 0 C0.66 0.33 1.32 0.66 2 1 C2 1.66 2 2.32 2 3 C2.66 3.33 3.32 3.66 4 4 C4 4.99 4 5.98 4 7 C1.034669259945 6.560691742214 -0.28888790079 5.783334074407 -2.75 3.9375 C-3.4925 3.298125 -4.235 2.65875 -5 2 C-2.625 0.9375 -2.625 0.9375 0 0 Z " fill="#0D0D0C" transform="translate(244,266)"/>
<path d="M0 0 C1.65 0.33 3.3 0.66 5 1 C4.048828658954 2.172513099654 3.08882991423 3.337870151263 2.125 4.5 C1.591328125 5.1496875 1.05765625 5.799375 0.5078125 6.46875 C0.010234375 6.9740625 -0.48734375 7.479375 -1 8 C-1.66 8 -2.32 8 -3 8 C-3 7.34 -3 6.68 -3 6 C-2.34 6 -1.68 6 -1 6 C-0.375 3 -0.375 3 0 0 Z " fill="#E5E5E4" transform="translate(523,460)"/>
<path d="M0 0 C0.33 0.66 0.66 1.32 1 2 C1.66 2.33 2.32 2.66 3 3 C2.625 6.0625 2.625 6.0625 2 9 C1.34 8.67 0.68 8.34 0 8 C0 7.34 0 6.68 0 6 C-2 4.875 -2 4.875 -4 4 C-3.67 3.34 -3.34 2.68 -3 2 C-2.01 2 -1.02 2 0 2 C0 1.34 0 0.68 0 0 Z " fill="#070707" transform="translate(540,445)"/>
<path d="M0 0 C0.99 0 1.98 0 3 0 C3.33 0.99 3.66 1.98 4 3 C4.33 3.495 4.33 3.495 6 6 C6.125 8.6875 6.125 8.6875 6 11 C2.904071646369 7.491281199218 1.258053771332 4.50802601394 0 0 Z " fill="#F0F0F0" transform="translate(343,202)"/>
<path d="M0 0 C2.351884469198 0.597936729457 4.689255952464 1.258817947017 7 2 C5.1875 3.5 5.1875 3.5 3 5 C1.333333333333 5 -0.333333333333 5 -2 5 C-2.8125 3.0625 -2.8125 3.0625 -3 1 C-2.01 0.67 -1.02 0.34 0 0 Z " fill="#EDEDEC" transform="translate(496,338)"/>
<path d="M0 0 C6.427435387674 0.606361829026 6.427435387674 0.606361829026 9 2.375 C9.33 2.91125 9.66 3.4475 10 4 C9.67 4.99 9.34 5.98 9 7 C7.497276295737 6.02501854902 5.997880369876 5.044906106786 4.5 4.0625 C3.6646875 3.5172265625 2.829375 2.971953125 1.96875 2.41015625 C1.3190625 1.9448046875 0.669375 1.479453125 0 1 C0 0.67 0 0.34 0 0 Z " fill="#141414" transform="translate(224,258)"/>
<path d="M0 0 C3 0.8125 3 0.8125 6 2 C6 2.99 6 3.98 6 5 C3.625 5.75 3.625 5.75 1 6 C0.34 5.67 -0.32 5.34 -1 5 C-1 4.34 -1 3.68 -1 3 C-0.34 3 0.32 3 1 3 C0.67 2.01 0.34 1.02 0 0 Z " fill="#F2F1EF" transform="translate(458,562)"/>
<path d="M0 0 C1.258125 0.12375 2.51625 0.2475 3.8125 0.375 C4.16634765625 0.4098046875 4.16634765625 0.4098046875 5.95703125 0.5859375 C8 1 8 1 11 3 C9.358018419467 3.2741602639 7.711076984745 3.518783031593 6.0625 3.75 C5.1459765625 3.88921875 4.229453125 4.0284375 3.28515625 4.171875 C2.5310546875 4.11515625 1.776953125 4.0584375 1 4 C0.18359375 2.015625 0.18359375 2.015625 0 0 Z " fill="#EDEDEC" transform="translate(376,506)"/>
<path d="M0 0 C0.66 0.33 1.32 0.66 2 1 C-0.3229176388 3.680289583231 -1.896485111448 4.960186581326 -5.25 6.25 C-5.70375 6.37375 -5.70375 6.37375 -8 7 C-7 4 -7 4 -5 2 C-2.5 0.8125 -2.5 0.8125 0 0 Z " fill="#EDEDED" transform="translate(500,478)"/>
<path d="M0 0 C1.75 0.625 1.75 0.625 4 2 C6.25 5.125 6.25 5.125 8 8 C5.36 7.34 2.72 6.68 0 6 C0.66 5.67 1.32 5.34 2 5 C1.125 2.4375 1.125 2.4375 0 0 Z " fill="#0B0A0B" transform="translate(566,330)"/>
<path d="M0 0 C1.315716029789 0.254751395289 2.627603760738 0.529341410493 3.9375 0.8125 C4.6683984375 0.9633203125 5.399296875 1.114140625 6.15234375 1.26953125 C6.7620703125 1.5105859375 7.371796875 1.751640625 8 2 C8.33 2.99 8.66 3.98 9 5 C2.84765625 4.609375 2.84765625 4.609375 1 4 C0.24609375 1.953125 0.24609375 1.953125 0 0 Z " fill="#0C0C0C" transform="translate(512,298)"/>
<path d="M0 0 C0 0.99 0 1.98 0 3 C0.33 3.66 0.66 4.32 1 5 C1.99 5.33 2.98 5.66 4 6 C4 6.66 4 7.32 4 8 C1.0625 7.75 1.0625 7.75 -2 7 C-2.350625 6.38125 -2.70125 5.7625 -3.0625 5.125 C-3.041875 4.42375 -3.02125 3.7225 -3 3 C-1.5625 1.25 -1.5625 1.25 0 0 Z " fill="#0B0B0B" transform="translate(223,250)"/>
<path d="M0 0 C1.98 0 3.96 0 6 0 C5.67 1.32 5.34 2.64 5 4 C4.67 3.67 4.34 3.34 4 3 C3.67 4.65 3.34 6.3 3 8 C2.34 7.34 1.68 6.68 1 6 C0.602357373865 4.011786869324 0.262246514182 2.010556608731 0 0 Z " fill="#060606" transform="translate(313,217)"/>
<path d="M0 0 C2.31 0.33 4.62 0.66 7 1 C6.67 1.99 6.34 2.98 6 4 C5.34 4 4.68 4 4 4 C3.34 4.66 2.68 5.32 2 6 C1.34 5.01 0.68 4.02 0 3 C0 2.01 0 1.02 0 0 Z " fill="#ECECEA" transform="translate(580,655)"/>
<path d="M0 0 C-2 2 -2 2 -3.9453125 2.6328125 C-5.963541666667 3.088541666667 -7.981770833333 3.544270833333 -10 4 C-10 2.68 -10 1.36 -10 0 C-6.692526143076 -1.653736928462 -3.492268374991 -0.714327622157 0 0 Z " fill="#121212" transform="translate(488,488)"/>
<path d="M0 0 C1.485 0.33 1.485 0.33 9 2 C8.01 2.66 7.02 3.32 6 4 C3.73828125 3.9765625 3.73828125 3.9765625 1.3125 3.625 C0.5042578125 3.514140625 -0.303984375 3.40328125 -1.13671875 3.2890625 C-1.7516015625 3.193671875 -2.366484375 3.09828125 -3 3 C-2.01 2.67 -1.02 2.34 0 2 C0 1.34 0 0.68 0 0 Z " fill="#E5E5E5" transform="translate(418,487)"/>
<path d="M0 0 C1.32 0.33 2.64 0.66 4 1 C3.175 2.155 3.175 2.155 -1 8 C-2.1875 6.25 -2.1875 6.25 -3 4 C-1.875 1.6875 -1.875 1.6875 0 0 Z " fill="#0C0C0C" transform="translate(572,474)"/>
<path d="M0 0 C2.9375 0.25 2.9375 0.25 6 1 C6.33 2.32 6.66 3.64 7 5 C3.7 4.34 0.4 3.68 -3 3 C-2.01 2.67 -1.02 2.34 0 2 C0 1.34 0 0.68 0 0 Z " fill="#0B0B0B" transform="translate(362,474)"/>
<path d="M0 0 C0.66 0.33 1.32 0.66 2 1 C1.175 2.155 1.175 2.155 -3 8 C-3.33 7.01 -3.66 6.02 -4 5 C-4.66 5 -5.32 5 -6 5 C-6 4.34 -6 3.68 -6 3 C-3.125 1.3125 -3.125 1.3125 0 0 Z " fill="#ECEAEB" transform="translate(255,200)"/>
<path d="M0 0 C0.66 0.33 1.32 0.66 2 1 C0.710348239562 2.375628544468 -0.626892925618 3.707663929994 -2 5 C-2.66 5 -3.32 5 -4 5 C-4.33 5.66 -4.66 6.32 -5 7 C-5 6.01 -5 5.02 -5 4 C-5.66 3.67 -6.32 3.34 -7 3 C-4.696312644765 1.93347807628 -2.359818131977 0.935789948887 0 0 Z " fill="#0D0D0D" transform="translate(502,480)"/>
<path d="M0 0 C0.99 0.33 1.98 0.66 3 1 C3.6875 3.0625 3.6875 3.0625 4 5 C1.0625 4.6875 1.0625 4.6875 -2 4 C-2.33 3.01 -2.66 2.02 -3 1 C-2.01 0.67 -1.02 0.34 0 0 Z " fill="#0B0B0B" transform="translate(486,331)"/>
<path d="M0 0 C3.333814152357 1.70964828326 4.888395280311 2.832592920467 7 6 C4 6 4 6 1 5 C1 4.01 1 3.02 1 2 C0.34 1.67 -0.32 1.34 -1 1 C-0.67 0.67 -0.34 0.34 0 0 Z " fill="#0C0C0C" transform="translate(558,322)"/>
<path d="M0 0 C0.99 0.33 1.98 0.66 3 1 C3 1.66 3 2.32 3 3 C4.327962905046 3.354123441346 5.662166065724 3.685215544876 7 4 C7.66 4.66 8.32 5.32 9 6 C7.171875 7.2421875 7.171875 7.2421875 5 8 C3.515625 6.4453125 3.515625 6.4453125 2.25 4.125 C1.82203125 3.364453125 1.3940625 2.60390625 0.953125 1.8203125 C0.63859375 1.219609375 0.3240625 0.61890625 0 0 Z " fill="#EBEAEA" transform="translate(555,621)"/>
<path d="M0 0 C0.66 0 1.32 0 2 0 C4.625 2.1875 4.625 2.1875 7 5 C7.3125 7.8125 7.3125 7.8125 7 10 C4.400070199923 7.48972295165 2.00908773061 5.013631595915 0 2 C0 1.34 0 0.68 0 0 Z " fill="#0F0F0F" transform="translate(480,584)"/>
<path d="M0 0 C0.66 0.33 0.66 0.33 4 2 C5.375 4.5 5.375 4.5 6 7 C5.34 7.66 4.68 8.32 4 9 C2.68 6.03 1.36 3.06 0 0 Z " fill="#171717" transform="translate(538,371)"/>
<path d="M0 0 C0.33 0 0.66 0 1 0 C1.9375 2.875 1.9375 2.875 2 6 C-0.9375 7.375 -0.9375 7.375 -4 8 C-2.875482728292 5.028061496201 -1.777062085791 2.665593128686 0 0 Z " fill="#121212" transform="translate(276,171)"/>
<path d="M0 0 C0.33 0.66 0.66 1.32 1 2 C0.34 2 -0.32 2 -1 2 C-1.061875 2.4125 -1.061875 2.4125 -1.375 4.5 C-1.58125 5.325 -1.7875 6.15 -2 7 C-3.32 7 -4.64 7 -6 7 C-5 5 -4 3 -3 1 C-2.01 0.67 -1.02 0.34 0 0 Z " fill="#0D0D0D" transform="translate(284,163)"/>
<path d="M0 0 C1.375628544468 1.289651760438 2.707663929994 2.626892925618 4 4 C4 4.66 4 5.32 4 6 C1.038248768911 5.387223883223 -0.380587827061 4.746274781959 -3 3 C-2.34 3 -1.68 3 -1 3 C-0.67 2.01 -0.34 1.02 0 0 Z " fill="#10100F" transform="translate(308,154)"/>
<path d="M0 0 C3.875 4.75 3.875 4.75 5 7 C3.68 7 2.36 7 1 7 C-0.3125 4.625 -0.3125 4.625 -1 2 C-0.67 1.34 -0.34 0.68 0 0 Z " fill="#E7E7E7" transform="translate(517,638)"/>
<path d="M0 0 C2.3125 0.6875 2.3125 0.6875 5 2 C6.8125 4.625 6.8125 4.625 8 7 C7.01 7 6.02 7 5 7 C5 6.34 5 5.68 5 5 C4.01 4.67 3.02 4.34 2 4 C0.8125 1.9375 0.8125 1.9375 0 0 Z " fill="#111111" transform="translate(533,594)"/>
<path d="M0 0 C0.66 0 1.32 0 2 0 C2 0.66 2 1.32 2 2 C2.66 2.33 3.32 2.66 4 3 C2.125 5.0625 2.125 5.0625 0 7 C-0.66 6.67 -1.32 6.34 -2 6 C-1.638063354956 3.755992800728 -1.01718491467 2.03436982934 0 0 Z " fill="#EDECED" transform="translate(255,261)"/>
<path d="M0 0 C2.667352725824 2.489529210769 4.557463429746 4.634081336073 6 8 C5.01 7.67 4.02 7.34 3 7 C3 6.34 3 5.68 3 5 C2.319375 4.87625 1.63875 4.7525 0.9375 4.625 C0.298125 4.41875 -0.34125 4.2125 -1 4 C-0.75 1.9375 -0.75 1.9375 0 0 Z " fill="#171717" transform="translate(368,242)"/>
<path d="M0 0 C1.194783216479 0.780631428224 2.380723438713 1.574814696271 3.5625 2.375 C3.89314453125 2.5954296875 3.89314453125 2.5954296875 5.56640625 3.7109375 C6.0394921875 4.136328125 6.512578125 4.56171875 7 5 C6.67 5.66 6.34 6.32 6 7 C3.36 5.68 0.72 4.36 -2 3 C-1.34 2.67 -0.68 2.34 0 2 C0 1.34 0 0.68 0 0 Z " fill="#1B1B1B" transform="translate(406,513)"/>
<path d="M0 0 C2.31 0.66 4.62 1.32 7 2 C6.67 2.99 6.34 3.98 6 5 C2.9375 4.375 2.9375 4.375 0 3 C0 2.01 0 1.02 0 0 Z " fill="#0F0F0F" transform="translate(403,485)"/>
<path d="M0 0 C3.0625 0.3125 3.0625 0.3125 6 1 C5.67 1.99 5.34 2.98 5 4 C2.9375 4.6875 2.9375 4.6875 1 5 C1 4.34 1 3.68 1 3 C0.34 3 -0.32 3 -1 3 C-0.67 2.01 -0.34 1.02 0 0 Z " fill="#E5E5E5" transform="translate(485,482)"/>
<path d="M0 0 C2.0625 0.6875 2.0625 0.6875 4 2 C3.875 4.625 3.875 4.625 3 7 C2.34 7 1.68 7 1 7 C-0.1875 4.625 -0.1875 4.625 -1 2 C-0.67 1.34 -0.34 0.68 0 0 Z " fill="#ECECEC" transform="translate(576,473)"/>
<path d="M0 0 C0.66 0.33 1.32 0.66 2 1 C2 1.99 2 2.98 2 4 C0.5 5.6875 0.5 5.6875 -1 7 C-1.33 6.01 -1.66 5.02 -2 4 C-1.0625 1.8125 -1.0625 1.8125 0 0 Z " fill="#0C0B0C" transform="translate(257,253)"/>
<path d="M0 0 C2.125 1.8125 2.125 1.8125 4 4 C3.67 4.495 3.67 4.495 2 7 C1.34 7 0.68 7 0 7 C-0.6875 4.0625 -0.6875 4.0625 -1 1 C-0.67 0.67 -0.34 0.34 0 0 Z " fill="#EDEDEC" transform="translate(533,662)"/>
<path d="M0 0 C2 0.8125 2 0.8125 4 2 C4 2.99 4 3.98 4 5 C2 4.75 2 4.75 0 4 C0 2.68 0 1.36 0 0 Z " fill="#0B0B0B" transform="translate(488,537)"/>
<path d="M0 0 C0.99 0 1.98 0 3 0 C2.1875 2.5 2.1875 2.5 1 5 C0.01 5 -0.98 5 -2 5 C-1.1875 2.5 -1.1875 2.5 0 0 Z " fill="#0E0E0E" transform="translate(565,483)"/>
<path d="M0 0 C2.5 0.1875 2.5 0.1875 5 1 C5.3125 3.5625 5.3125 3.5625 5 6 C3.0625 5.8125 3.0625 5.8125 1 5 C0.25 2.4375 0.25 2.4375 0 0 Z " fill="#EDECEC" transform="translate(569,329)"/>
<path d="M0 0 C1.125 1.8125 1.125 1.8125 2 4 C1.67 4.495 1.67 4.495 0 7 C-1.6875 4.625 -1.6875 4.625 -3 2 C-2.01 1.34 -1.02 0.68 0 0 Z " fill="#0F0F0F" transform="translate(341,255)"/>
<path d="M0 0 C3.875 4.75 3.875 4.75 5 7 C2.506384291223 5.796185519901 0.318569172208 4.545712781472 -2 3 C-1.34 2.01 -0.68 1.02 0 0 Z " fill="#161616" transform="translate(298,139)"/>
<path d="M0 0 C1.98 0 3.96 0 6 0 C6 1.32 6 2.64 6 4 C4.68 4 3.36 4 2 4 C0.75 2 0.75 2 0 0 Z " fill="#101010" transform="translate(526,651)"/>
<path d="M0 0 C0.66 0 1.32 0 2 0 C3.389380773527 1.961478739097 4.726041097251 3.961665755602 6 6 C4.68 6 3.36 6 2 6 C0.75 3 0.75 3 0 0 Z " fill="#0F0F0F" transform="translate(509,560)"/>
<path d="M0 0 C2.64 0.33 5.28 0.66 8 1 C4.911903046283 2.764626830696 3.766878643342 3 0 3 C0 2.01 0 1.02 0 0 Z " fill="#E4E4E2" transform="translate(359,501)"/>
<path d="M0 0 C0.66 0.99 1.32 1.98 2 3 C1.67 3.66 1.34 4.32 1 5 C-2.0625 4.625 -2.0625 4.625 -5 4 C-3.35 2.68 -1.7 1.36 0 0 Z " fill="#0C0C0D" transform="translate(509,476)"/>
<path d="M0 0 C1.675429756312 0.286048982785 3.343853426427 0.617812329175 5 1 C4.67 2.32 4.34 3.64 4 5 C3.67 4.34 3.34 3.68 3 3 C0.9375 1.875 0.9375 1.875 -1 1 C-0.67 0.67 -0.34 0.34 0 0 Z " fill="#0E0E0E" transform="translate(530,305)"/>
<path d="M0 0 C0.99 0.33 1.98 0.66 3 1 C3 1.99 3 2.98 3 4 C1.125 4.8125 1.125 4.8125 -1 5 C-1.66 4.34 -2.32 3.68 -3 3 C-1.6875 1.4375 -1.6875 1.4375 0 0 Z " fill="#E9E9E7" transform="translate(531,300)"/>
<path d="M0 0 C1.32 0 2.64 0 4 0 C3.34 1.65 2.68 3.3 2 5 C1.34 4.67 0.68 4.34 0 4 C0 2.68 0 1.36 0 0 Z " fill="#111111" transform="translate(473,573)"/>
<path d="M0 0 C2.0625 0.75 2.0625 0.75 4 2 C3.75 4.125 3.75 4.125 3 6 C1.5 4.6875 1.5 4.6875 0 3 C0 2.01 0 1.02 0 0 Z " fill="#171717" transform="translate(433,531)"/>
<path d="M0 0 C2.4375 0.3125 2.4375 0.3125 5 1 C5.33 1.99 5.66 2.98 6 4 C3 3.6875 3 3.6875 0 3 C0 2.01 0 1.02 0 0 Z " fill="#0A0B0B" transform="translate(371,476)"/>
<path d="M0 0 C2.5625 0.75 2.5625 0.75 5 2 C4.8125 4.125 4.8125 4.125 4 6 C2.624371455532 4.710348239562 1.292336070006 3.373107074382 0 2 C0 1.34 0 0.68 0 0 Z " fill="#E9E9E9" transform="translate(538,305)"/>
<path d="M0 0 C0.99 0.33 1.98 0.66 3 1 C0.69 2.32 -1.62 3.64 -4 5 C-4.33 4.01 -4.66 3.02 -5 2 C-2.75 0.75 -2.75 0.75 0 0 Z " fill="#121212" transform="translate(358,267)"/>
<path d="M0 0 C0.66 0 1.32 0 2 0 C3.125 2 3.125 2 4 4 C2.35 4.33 0.7 4.66 -1 5 C-0.625 2.5 -0.625 2.5 0 0 Z " fill="#ECECEC" transform="translate(341,263)"/>
<path d="M0 0 C2.5625 2.375 2.5625 2.375 5 5 C4.67 5.66 4.34 6.32 4 7 C3.34 7 2.68 7 2 7 C0.875 5.1875 0.875 5.1875 0 3 C0 2.01 0 1.02 0 0 Z " fill="#1A1A1A" transform="translate(517,569)"/>
<path d="M0 0 C1.155 0.66 1.155 0.66 7 4 C6.34 4.66 5.68 5.32 5 6 C2.375 4.25 2.375 4.25 0 2 C0 1.34 0 0.68 0 0 Z " fill="#E8E8E8" transform="translate(451,553)"/>
<path d="M0 0 C0.66 0.33 1.32 0.66 2 1 C1.25 4.0625 1.25 4.0625 0 7 C-0.66 7 -1.32 7 -2 7 C-1.34 4.69 -0.68 2.38 0 0 Z " fill="#151515" transform="translate(546,425)"/>
<path d="M0 0 C1.32 1.32 2.64 2.64 4 4 C2.68 4.33 1.36 4.66 0 5 C-0.5625 3.0625 -0.5625 3.0625 -1 1 C-0.67 0.67 -0.34 0.34 0 0 Z " fill="#131313" transform="translate(355,223)"/>
<path d="M0 0 C1.32 0 2.64 0 4 0 C3.67 1.32 3.34 2.64 3 4 C2.175 3.67 2.175 3.67 -2 2 C-1.34 1.34 -0.68 0.68 0 0 Z " fill="#121212" transform="translate(389,507)"/>
<path d="M0 0 C-0.8125 2.0625 -0.8125 2.0625 -2 4 C-2.99 3.67 -3.98 3.34 -5 3 C-5 2.34 -5 1.68 -5 1 C-2 0 -2 0 0 0 Z " fill="#121212" transform="translate(560,492)"/>
<path d="M0 0 C1.98 0.66 3.96 1.32 6 2 C5.67 2.66 5.34 3.32 5 4 C4.01 4 3.02 4 2 4 C0.8125 2 0.8125 2 0 0 Z " fill="#1B1B1A" transform="translate(347,270)"/>
<path d="M0 0 C0.99 0 1.98 0 3 0 C3.33 0.99 3.66 1.98 4 3 C3.01 2.835 3.01 2.835 -2 2 C-1.34 1.34 -0.68 0.68 0 0 Z " fill="#ECECEC" transform="translate(363,472)"/>
<path d="M0 0 C0.66 0 1.32 0 2 0 C1.67 2.31 1.34 4.62 1 7 C-0.0625 5.1875 -0.0625 5.1875 -1 3 C-0.67 2.01 -0.34 1.02 0 0 Z " fill="#0E0E0E" transform="translate(590,434)"/>
<path d="M0 0 C2.5 0.375 2.5 0.375 5 1 C5 1.66 5 2.32 5 3 C3.35 3 1.7 3 0 3 C0 2.01 0 1.02 0 0 Z " fill="#121111" transform="translate(491,334)"/>
<path d="M0 0 C0.825 0.165 0.825 0.165 5 1 C4.01 2.32 3.02 3.64 2 5 C2 4.01 2 3.02 2 2 C1.34 2 0.68 2 0 2 C0 1.34 0 0.68 0 0 Z " fill="#E4E4E3" transform="translate(233,227)"/>
<path d="M0 0 C1.32 1.32 2.64 2.64 4 4 C2.68 4.33 1.36 4.66 0 5 C0 3.35 0 1.7 0 0 Z " fill="#0F0F0F" transform="translate(340,201)"/>
<path d="M0 0 C0.99 0.33 1.98 0.66 3 1 C3.33 1.99 3.66 2.98 4 4 C3.67 4.165 3.67 4.165 2 5 C0.3125 3.6875 0.3125 3.6875 -1 2 C-0.67 1.34 -0.34 0.68 0 0 Z " fill="#101010" transform="translate(294,145)"/>
<path d="M0 0 C1.32 0 2.64 0 4 0 C4 1.32 4 2.64 4 4 C3.34 4 2.68 4 2 4 C0.875 2 0.875 2 0 0 Z " fill="#151414" transform="translate(541,673)"/>
<path d="M0 0 C0.99 0 1.98 0 3 0 C2.67 0.99 2.34 1.98 2 3 C1.01 3.33 0.02 3.66 -1 4 C-1.33 3.34 -1.66 2.68 -2 2 C-1.34 2 -0.68 2 0 2 C0 1.34 0 0.68 0 0 Z " fill="#0D0D0D" transform="translate(525,513)"/>
<path d="M0 0 C0.66 0.66 1.32 1.32 2 2 C1.34 2.66 0.68 3.32 0 4 C-0.99 3.67 -1.98 3.34 -3 3 C-3 2.34 -3 1.68 -3 1 C-2.01 0.67 -1.02 0.34 0 0 Z " fill="#101010" transform="translate(400,510)"/>
<path d="M0 0 C1.695141372719 0.950932965184 3.363681079809 1.951077615262 5 3 C4.01 3.33 3.02 3.66 2 4 C0.3125 2.5625 0.3125 2.5625 -1 1 C-0.67 0.67 -0.34 0.34 0 0 Z " fill="#171717" transform="translate(558,322)"/>
<path d="M0 0 C2.6875 0.8125 2.6875 0.8125 5 2 C5 2.33 5 2.66 5 3 C2.36 2.67 -0.28 2.34 -3 2 C-2.01 1.34 -1.02 0.68 0 0 Z " fill="#FBFBFB" transform="translate(518,297)"/>
<path d="M0 0 C0.99 0.33 1.98 0.66 3 1 C2.67 1.99 2.34 2.98 2 4 C0.68 3.01 -0.64 2.02 -2 1 C-1.34 0.67 -0.68 0.34 0 0 Z " fill="#1A1A19" transform="translate(241,267)"/>
<path d="M0 0 C0.144375 0.61875 0.28875 1.2375 0.4375 1.875 C1 4 1 4 2 6 C1.01 6 0.02 6 -1 6 C-1.33 5.01 -1.66 4.02 -2 3 C-1.34 2.01 -0.68 1.02 0 0 Z " fill="#EBEBEB" transform="translate(265,247)"/>
<path d="M0 0 C0.99 0.66 1.98 1.32 3 2 C1.68 2.99 0.36 3.98 -1 5 C-1 2 -1 2 0 0 Z " fill="#141414" transform="translate(248,212)"/>
<path d="M0 0 C2 0.3125 2 0.3125 4 1 C4 1.99 4 2.98 4 4 C3.34 4 2.68 4 2 4 C0.875 2 0.875 2 0 0 Z " fill="#131211" transform="translate(537,667)"/>
<path d="M0 0 C0.99 0 1.98 0 3 0 C3 1.65 3 3.3 3 5 C1.5 3.625 1.5 3.625 0 2 C0 1.34 0 0.68 0 0 Z " fill="#0F0F0F" transform="translate(522,644)"/>
<path d="M0 0 C0.99 1.32 1.98 2.64 3 4 C1.35 3.67 -0.3 3.34 -2 3 C-1.34 2.67 -0.68 2.34 0 2 C0 1.34 0 0.68 0 0 Z " fill="#0B0B0A" transform="translate(542,603)"/>
<path d="M0 0 C0.99 0.33 1.98 0.66 3 1 C3 1.66 3 2.32 3 3 C2.01 2.835 2.01 2.835 -3 2 C-2.01 1.34 -1.02 0.68 0 0 Z " fill="#151515" transform="translate(383,505)"/>
<path d="M0 0 C0.99 0.33 1.98 0.66 3 1 C3 1.66 3 2.32 3 3 C2.01 3.33 1.02 3.66 0 4 C-0.33 3.34 -0.66 2.68 -1 2 C-0.67 1.34 -0.34 0.68 0 0 Z " fill="#EAEAEA" transform="translate(505,475)"/>
<path d="M0 0 C0.99 0 1.98 0 3 0 C3 0.99 3 1.98 3 3 C1.68 2.67 0.36 2.34 -1 2 C-0.67 1.34 -0.34 0.68 0 0 Z " fill="#171717" transform="translate(537,447)"/>
<path d="M0 0 C0.66 0 1.32 0 2 0 C2 1.32 2 2.64 2 4 C1.01 3.67 0.02 3.34 -1 3 C-0.67 2.01 -0.34 1.02 0 0 Z " fill="#ECECEA" transform="translate(592,436)"/>
<path d="M0 0 C0.99 0 1.98 0 3 0 C3 0.99 3 1.98 3 3 C2.01 3.33 1.02 3.66 0 4 C0 2.68 0 1.36 0 0 Z " fill="#0A0A0A" transform="translate(590,428)"/>
<path d="M0 0 C1.680762311646 0.630285866867 3.347955442333 1.297881062992 5 2 C5 2.33 5 2.66 5 3 C3.35 3 1.7 3 0 3 C0 2.01 0 1.02 0 0 Z " fill="#191918" transform="translate(544,312)"/>
<path d="M0 0 C2.5625 0.3125 2.5625 0.3125 5 1 C4.01 1.66 3.02 2.32 2 3 C1.01 3 0.02 3 -1 3 C-0.67 2.01 -0.34 1.02 0 0 Z " fill="#0D0D0D" transform="translate(502,295)"/>
<path d="M0 0 C2.0625 0.375 2.0625 0.375 4 1 C3.67 1.66 3.34 2.32 3 3 C0.9375 2.625 0.9375 2.625 -1 2 C-0.67 1.34 -0.34 0.68 0 0 Z " fill="#E7E7E7" transform="translate(508,294)"/>
<path d="M0 0 C0.66 0.33 1.32 0.66 2 1 C1.625 3.0625 1.625 3.0625 1 5 C-0.0625 3.0625 -0.0625 3.0625 -1 1 C-0.67 0.67 -0.34 0.34 0 0 Z " fill="#131413" transform="translate(315,220)"/>
<path d="M0 0 C0.99 0 1.98 0 3 0 C2.67 0.99 2.34 1.98 2 3 C1.01 2.67 0.02 2.34 -1 2 C-0.67 1.34 -0.34 0.68 0 0 Z " fill="#E9E9E7" transform="translate(572,642)"/>
<path d="M0 0 C0.825 0.165 0.825 0.165 5 1 C4.34 1.66 3.68 2.32 3 3 C2.01 2.01 1.02 1.02 0 0 Z " fill="#E1E0DE" transform="translate(523,460)"/>
<path d="M0 0 C0.66 0.33 0.66 0.33 4 2 C3.34 2.66 2.68 3.32 2 4 C1.34 2.68 0.68 1.36 0 0 Z " fill="#1C1C1C" transform="translate(566,330)"/>
<path d="M0 0 C0.66 0.66 1.32 1.32 2 2 C1.01 2.66 0.02 3.32 -1 4 C-1.33 3.01 -1.66 2.02 -2 1 C-1.34 0.67 -0.68 0.34 0 0 Z " fill="#0E0E0E" transform="translate(376,254)"/>
<path d="M0 0 C0.66 0 1.32 0 2 0 C2 0.99 2 1.98 2 3 C0.68 2.67 -0.64 2.34 -2 2 C-1.34 1.34 -0.68 0.68 0 0 Z " fill="#E6E6E6" transform="translate(341,198)"/>
<path d="M0 0 C0.66 0 1.32 0 2 0 C2.33 0.99 2.66 1.98 3 3 C2.34 3.66 1.68 4.32 1 5 C0.67 3.35 0.34 1.7 0 0 Z " fill="#E9E9E9" transform="translate(294,139)"/>
<path d="M0 0 C0.99 0.99 1.98 1.98 3 3 C2.01 3.33 1.02 3.66 0 4 C0 2.68 0 1.36 0 0 Z " fill="#EAEAEA" transform="translate(437,537)"/>
<path d="M0 0 C1.32 0 2.64 0 4 0 C3.67 0.99 3.34 1.98 3 3 C2.01 2.01 1.02 1.02 0 0 Z " fill="#E6E7E4" transform="translate(484,532)"/>
<path d="M0 0 C-0.33 0.99 -0.66 1.98 -1 3 C-2.32 2.34 -3.64 1.68 -5 1 C-2 0 -2 0 0 0 Z " fill="#E0E0E0" transform="translate(525,299)"/>
<path d="M0 0 C0.66 0.33 1.32 0.66 2 1 C1.67 1.99 1.34 2.98 1 4 C0.01 3.34 -0.98 2.68 -2 2 C-1.34 2 -0.68 2 0 2 C0 1.34 0 0.68 0 0 Z " fill="#E1E1DF" transform="translate(248,271)"/>
<path d="M0 0 C0.495 0.33 0.495 0.33 3 2 C2.67 2.66 2.34 3.32 2 4 C1.01 3.01 0.02 2.02 -1 1 C-0.67 0.67 -0.34 0.34 0 0 Z " fill="#0C0C0C" transform="translate(271,179)"/>
<path d="M0 0 C0.66 0.99 1.32 1.98 2 3 C1.01 3 0.02 3 -1 3 C-0.67 2.01 -0.34 1.02 0 0 Z " fill="#181818" transform="translate(564,485)"/>
<path d="M0 0 C0.99 0.33 1.98 0.66 3 1 C2.34 1.66 1.68 2.32 1 3 C0.67 2.01 0.34 1.02 0 0 Z " fill="#D9D8D6" transform="translate(462,564)"/>
<path d="M0 0 C0.99 0.33 1.98 0.66 3 1 C2.34 1.66 1.68 2.32 1 3 C0.67 2.01 0.34 1.02 0 0 Z " fill="#DCDCDB" transform="translate(499,546)"/>
<path d="M0 0 C0.66 0 1.32 0 2 0 C1.67 0.99 1.34 1.98 1 3 C0.34 2.34 -0.32 1.68 -1 1 C-0.67 0.67 -0.34 0.34 0 0 Z " fill="#191919" transform="translate(558,492)"/>
<path d="M0 0 C0.99 0.33 1.98 0.66 3 1 C2.34 1.66 1.68 2.32 1 3 C0.67 2.01 0.34 1.02 0 0 Z " fill="#171717" transform="translate(512,474)"/>
</svg>
